<?xml version="1.0" standalone="no"?>
<!DOCTYPE svg PUBLIC "-//W3C//DTD SVG 20010904//EN"
 "http://www.w3.org/TR/2001/REC-SVG-20010904/DTD/svg10.dtd">
<svg version="1.0" xmlns="http://www.w3.org/2000/svg"
 width="512.000000pt" height="512.000000pt" viewBox="0 0 512.000000 512.000000"
 preserveAspectRatio="xMidYMid meet">
<metadata>
Created by potrace 1.14, written by Peter Selinger 2001-2017
</metadata>
<g transform="translate(0.000000,512.000000) scale(0.100000,-0.100000)"
fill="#000000" stroke="none">
<path d="M1059 5116 c-2 -2 -26 -6 -54 -9 -73 -8 -153 -25 -175 -37 -11 -6
-20 -8 -20 -5 0 3 -22 -4 -49 -14 -28 -10 -52 -16 -55 -13 -4 3 -6 -1 -6 -8 0
-7 -3 -11 -6 -7 -9 9 -171 -78 -235 -126 -62 -46 -139 -114 -139 -122 0 -3 -8
-13 -17 -23 -38 -40 -67 -84 -89 -132 -9 -19 -21 -38 -28 -42 -6 -4 -7 -8 -2
-8 5 0 3 -7 -4 -15 -7 -9 -10 -18 -7 -22 4 -3 2 -12 -5 -20 -6 -7 -8 -16 -5
-19 3 -3 -1 -20 -8 -37 -10 -26 -12 -410 -11 -2012 1 -1235 5 -1986 11 -1995
8 -13 12 -27 17 -67 1 -7 6 -13 11 -13 6 0 8 -3 4 -6 -20 -20 134 -234 168
-234 7 0 15 -6 18 -13 8 -23 138 -84 212 -101 63 -14 241 -15 1720 -13 1563 2
1652 3 1695 20 25 10 50 19 55 21 41 12 119 61 165 103 14 13 28 23 32 23 5 0
8 5 8 11 0 7 7 17 15 23 8 6 30 38 49 70 24 40 50 68 79 85 59 35 136 94 137
104 0 4 11 18 25 31 13 13 22 26 18 29 -3 4 -1 7 5 7 7 0 12 7 12 15 0 8 4 15
9 15 14 0 71 145 76 195 1 11 3 54 4 95 1 74 2 75 35 98 120 82 221 232 244
362 14 82 7 3215 -8 3215 -1 0 -3 9 -5 19 -2 11 -7 31 -11 45 -4 14 -8 29 -9
34 -2 4 -4 10 -5 15 -1 4 -2 10 -1 15 0 4 -4 7 -9 7 -6 0 -10 7 -10 15 0 26
-82 153 -135 207 -62 65 -112 108 -124 108 -5 0 -11 3 -13 8 -9 21 -146 77
-248 103 -71 17 -153 18 -1701 18 -894 0 -1628 -1 -1630 -3z"/>
</g>
</svg>
